<svg xmlns="http://www.w3.org/2000/svg" viewBox="0 0 100 100" width="100" height="100">
  <!-- Left page -->
  <path d="M8,18 Q8,14 12,14 L48,14 L48,86 L12,86 Q8,86 8,82 Z" fill="#000"/>
  <!-- Right page -->
  <path d="M52,14 L88,14 Q92,14 92,18 L92,82 Q92,86 88,86 L52,86 Z" fill="#000"/>
  <!-- Spine -->
  <rect x="46" y="12" width="8" height="76" rx="2" fill="#000"/>
  <!-- Left page text lines -->
  <rect x="16" y="26" width="24" height="3" rx="1" fill="white"/>
  <rect x="16" y="35" width="24" height="3" rx="1" fill="white"/>
  <rect x="16" y="44" width="18" height="3" rx="1" fill="white"/>
  <rect x="16" y="53" width="24" height="3" rx="1" fill="white"/>
  <rect x="16" y="62" width="20" height="3" rx="1" fill="white"/>
  <rect x="16" y="71" width="24" height="3" rx="1" fill="white"/>
  <!-- Right page text lines -->
  <rect x="58" y="26" width="24" height="3" rx="1" fill="white"/>
  <rect x="58" y="35" width="24" height="3" rx="1" fill="white"/>
  <rect x="58" y="44" width="18" height="3" rx="1" fill="white"/>
  <rect x="58" y="53" width="24" height="3" rx="1" fill="white"/>
  <rect x="58" y="62" width="20" height="3" rx="1" fill="white"/>
  <rect x="58" y="71" width="24" height="3" rx="1" fill="white"/>
</svg>
