<svg xmlns="http://www.w3.org/2000/svg" viewBox="0 0 100 100" width="100" height="100">
  <g fill="#000">
    <!-- Left wing -->
    <rect x="5" y="35" width="28" height="55" rx="2"/>
    <!-- Center building -->
    <rect x="30" y="15" width="40" height="75" rx="2"/>
    <!-- Center building top -->
    <rect x="25" y="8" width="50" height="10" rx="2"/>
    <!-- Right wing -->
    <rect x="67" y="35" width="28" height="55" rx="2"/>
  </g>
  <g fill="white">
    <!-- Center windows -->
    <rect x="36" y="22" width="6" height="6" rx="1"/><rect x="47" y="22" width="6" height="6" rx="1"/><rect x="58" y="22" width="6" height="6" rx="1"/>
    <rect x="36" y="33" width="6" height="6" rx="1"/><rect x="47" y="33" width="6" height="6" rx="1"/><rect x="58" y="33" width="6" height="6" rx="1"/>
    <rect x="36" y="44" width="6" height="6" rx="1"/><rect x="47" y="44" width="6" height="6" rx="1"/><rect x="58" y="44" width="6" height="6" rx="1"/>
    <rect x="36" y="55" width="6" height="6" rx="1"/><rect x="47" y="55" width="6" height="6" rx="1"/><rect x="58" y="55" width="6" height="6" rx="1"/>
    <!-- Left windows -->
    <rect x="11" y="42" width="5" height="5" rx="1"/><rect x="20" y="42" width="5" height="5" rx="1"/>
    <rect x="11" y="52" width="5" height="5" rx="1"/><rect x="20" y="52" width="5" height="5" rx="1"/>
    <rect x="11" y="62" width="5" height="5" rx="1"/><rect x="20" y="62" width="5" height="5" rx="1"/>
    <rect x="11" y="72" width="5" height="5" rx="1"/><rect x="20" y="72" width="5" height="5" rx="1"/>
    <!-- Right windows -->
    <rect x="73" y="42" width="5" height="5" rx="1"/><rect x="82" y="42" width="5" height="5" rx="1"/>
    <rect x="73" y="52" width="5" height="5" rx="1"/><rect x="82" y="52" width="5" height="5" rx="1"/>
    <rect x="73" y="62" width="5" height="5" rx="1"/><rect x="82" y="62" width="5" height="5" rx="1"/>
    <rect x="73" y="72" width="5" height="5" rx="1"/><rect x="82" y="72" width="5" height="5" rx="1"/>
    <!-- Door -->
    <rect x="42" y="68" width="16" height="22" rx="1"/>
  </g>
  <line x1="50" y1="68" x2="50" y2="90" stroke="#000" stroke-width="1.5"/>
</svg>
