<svg xmlns="http://www.w3.org/2000/svg" viewBox="0 0 100 100" width="100" height="100">
  <g fill="#000">
    <!-- Top book cover -->
    <rect x="22" y="15" width="56" height="12" rx="2"/>
    <!-- Top book -->
    <path d="M18,42 L18,28 Q18,25 21,25 L79,25 Q82,25 82,28 L82,42 Q82,45 79,45 L21,45 Q18,45 18,42 Z"/>
    <!-- Middle book -->
    <path d="M12,62 L12,48 Q12,45 15,45 L85,45 Q88,45 88,48 L88,62 Q88,65 85,65 L15,65 Q12,65 12,62 Z"/>
    <!-- Bottom book -->
    <path d="M15,82 L15,68 Q15,65 18,65 L82,65 Q85,65 85,68 L85,82 Q85,85 82,85 L18,85 Q15,85 15,82 Z"/>
  </g>
</svg>
